<svg xmlns="http://www.w3.org/2000/svg" viewBox="0 0 24 24" fill="currentColor" width="24" height="24" aria-hidden="true">
  <path d="M12 2.16c3.2 0 3.58 0 4.85.07 3.25.15 4.77 1.69 4.92 4.92.06 1.27.07 1.65.07 4.85 0 3.2 0 3.58-.07 4.85-.15 3.23-1.66 4.77-4.92 4.92-1.27.06-1.64.07-4.85.07-3.2 0-3.58 0-4.85-.07-3.26-.15-4.77-1.7-4.92-4.92-.06-1.27-.07-1.64-.07-4.85 0-3.2 0-3.58.07-4.85C2.38 3.92 3.9 2.38 7.15 2.23 8.42 2.18 8.8 2.16 12 2.16zM12 0C8.74 0 8.33.01 7.05.07 2.7.27.27 2.69.07 7.05.01 8.33 0 8.74 0 12c0 3.26.01 3.67.07 4.95.2 4.36 2.62 6.78 6.98 6.98C8.33 23.99 8.74 24 12 24c3.26 0 3.67-.01 4.95-.07 4.35-.2 6.78-2.62 6.98-6.98.06-1.28.07-1.69.07-4.95 0-3.26-.01-3.67-.07-4.95-.2-4.35-2.62-6.78-6.98-6.98C15.67.01 15.26 0 12 0zm0 5.84a6.16 6.16 0 100 12.32 6.16 6.16 0 000-12.32zM12 16a4 4 0 110-8 4 4 0 010 8zm6.41-11.85a1.44 1.44 0 100 2.88 1.44 1.44 0 000-2.88z"/>
</svg>
